<?xml version="1.0" encoding="UTF-8"?> <svg xmlns="http://www.w3.org/2000/svg" xmlns:xlink="http://www.w3.org/1999/xlink" version="1.1" id="Layer_1" x="0px" y="0px" viewBox="0 0 153 55" style="enable-background:new 0 0 153 55;" xml:space="preserve"> <style type="text/css"> .st0{clip-path:url(#SVGID_00000016797819243214702630000005904768080113250994_);} .st1{clip-path:url(#SVGID_00000181803579063081448040000005293842234627040932_);} </style> <g> <g> <defs> <path id="SVGID_1_" d="M146.4,30.9V7h5.4v23.9H146.4L146.4,30.9z M134.3,18.9c0-4.2-3.1-7.4-7.2-7.4c-4.1,0-7.2,3.2-7.2,7.4 c0,4.2,3.1,7.4,7.2,7.4C131.2,26.3,134.3,23.1,134.3,18.9L134.3,18.9z M114.5,18.9c0-7.1,5.7-12.5,12.7-12.5 c7.2,0,12.7,5.3,12.7,12.4c0,7.1-5.5,12.5-12.7,12.5C120.1,31.4,114.5,26,114.5,18.9L114.5,18.9z M106,7h6.3l-9.5,11.9l9.8,12h-7 l-8.1-10.2v10.2h-5.4V7h5.4v11.1L106,7L106,7z M71.9,21.1v5.2H77c2.1,0,3.3-1,3.3-2.5c0-1.6-1.2-2.7-3.3-2.7H71.9L71.9,21.1z M71.9,11.6v4.9h4c1.9,0,2.8-1,2.8-2.5c0-1.4-0.9-2.4-2.8-2.4H71.9L71.9,11.6z M66.5,7h9.8c5.3,0,7.7,3,7.7,6.5 c0,2.1-1,3.8-3,4.9c3,0.9,4.6,2.9,4.6,5.7c0,3.9-2.8,6.8-8.4,6.8H66.5V7L66.5,7z M54.4,18.9c0-4.2-3.1-7.4-7.2-7.4 s-7.2,3.2-7.2,7.4c0,4.2,3.1,7.4,7.2,7.4C51.3,26.3,54.4,23.1,54.4,18.9L54.4,18.9z M34.6,18.9c0-7.1,5.7-12.5,12.7-12.5 c7.2,0,12.7,5.3,12.7,12.4c0,7.1-5.5,12.5-12.7,12.5C40.3,31.4,34.6,26,34.6,18.9L34.6,18.9z M6.2,16.6v14.3H1V7h6.5l7,15.8 l7-15.8H28v23.9h-5.3V16.5l-6.5,14.3h-3.6L6.2,16.6L6.2,16.6z"></path> </defs> <clipPath id="SVGID_00000178176197391526789070000008550434977538662833_"> <use xlink:href="#SVGID_1_" style="overflow:visible;"></use> </clipPath> <g style="clip-path:url(#SVGID_00000178176197391526789070000008550434977538662833_);"> <defs> <rect id="SVGID_00000143581690250974300910000017948925722518104480_" x="1" y="6.5" width="150.8" height="24.9"></rect> </defs> <clipPath id="SVGID_00000044894905314744236710000016085511807803170238_"> <use xlink:href="#SVGID_00000143581690250974300910000017948925722518104480_" style="overflow:visible;"></use> </clipPath> <g style="clip-path:url(#SVGID_00000044894905314744236710000016085511807803170238_);"> <image style="overflow:visible;" width="1092" height="184" transform="matrix(0.1386 0 0 -0.1386 0.8126 31.7205)"> </image> </g> </g> </g> <g> <defs> <path id="SVGID_00000147907414148190744060000017374749695532401590_" d="M97.7,43.4c-0.5,0-0.9,0.4-0.9,0.9 c0,0.5,0.4,0.9,0.9,0.9c0.5,0,0.9-0.4,0.9-0.9C98.5,43.8,98.1,43.4,97.7,43.4L97.7,43.4z M54.6,43.4c-0.5,0-0.9,0.4-0.9,0.9 c0,0.5,0.4,0.9,0.9,0.9c0.5,0,0.9-0.4,0.9-0.9C55.4,43.8,55,43.4,54.6,43.4L54.6,43.4z M149.3,42v1.6h2.9v0.9h-2.9v1.6h3.3V47 h-4.3v-5.9h4.2V42H149.3L149.3,42z M144.8,47l0-4.4l-1.9,3.8h-0.6l-1.9-3.8V47h-0.9v-5.9h1.2l1.9,3.9l1.9-3.9h1.2V47H144.8 L144.8,47z M132.2,44.1c0,1.2,1,2.1,2.1,2.1c1.1,0,2.1-0.9,2.1-2.1c0-1.2-0.9-2.1-2.1-2.1C133.1,42,132.2,42.9,132.2,44.1 L132.2,44.1z M137.4,44.1c0,1.7-1.4,3-3.1,3c-1.8,0-3.1-1.3-3.1-3c0-1.7,1.4-3,3.1-3C136,41.1,137.4,42.4,137.4,44.1L137.4,44.1z M129.7,42l-0.6,0.7c-0.4-0.5-1-0.7-1.6-0.7c-1.2,0-2.1,0.9-2.1,2.1c0,1.2,0.9,2.1,2.1,2.1c0.6,0,1.2-0.3,1.6-0.7l0.6,0.7 c-0.6,0.6-1.4,1-2.3,1c-1.7,0-3.1-1.3-3.1-3c0-1.7,1.4-3,3.1-3C128.3,41.1,129.1,41.5,129.7,42L129.7,42z M121.5,42v5h-1v-5h-1.9 v-0.9h4.7V42H121.5L121.5,42z M116.9,44.6c0,1.5-1,2.5-2.5,2.5c-1.6,0-2.6-0.9-2.6-2.5v-3.4h1v3.4c0,1,0.6,1.6,1.6,1.6 c1,0,1.6-0.6,1.6-1.6v-3.4h1V44.6L116.9,44.6z M104.6,44.1c0,1.2,1,2.1,2.1,2.1c1.1,0,2.1-0.9,2.1-2.1c0-1.2-0.9-2.1-2.1-2.1 C105.5,42,104.6,42.9,104.6,44.1L104.6,44.1z M109.8,44.1c0,1.7-1.4,3-3.1,3c-1.8,0-3.1-1.3-3.1-3c0-1.7,1.4-3,3.1-3 C108.4,41.1,109.8,42.4,109.8,44.1L109.8,44.1z M89.5,42.2l-1.1,2.6h2.2L89.5,42.2L89.5,42.2z M88,45.7L87.5,47h-1l2.6-5.9h1 l2.6,5.9h-1.1L91,45.7H88L88,45.7z M83.6,47v-5.9h1V47H83.6L83.6,47z M77.1,46.1h1.4c1.1,0,2-0.8,2-2c0-1.2-0.9-2.1-2.1-2.1h-1.4 V46.1L77.1,46.1z M78.5,41.1c1.8,0,3,1.2,3,2.9c0,1.7-1.3,2.9-3.1,2.9h-2.4v-5.9H78.5L78.5,41.1z M70.6,42v1.6h2.9v0.9h-2.9v1.6 h3.3V47h-4.3v-5.9h4.2V42H70.6L70.6,42z M66.1,47l0-4.4l-1.9,3.8h-0.6l-1.9-3.8V47h-0.9v-5.9h1.2l1.9,3.9l1.9-3.9H67V47H66.1 L66.1,47z M45.6,42v1.6h2.9v0.9h-2.9v1.6h3.3V47h-4.3v-5.9h4.2V42H45.6L45.6,42z M39.4,47L37,41.1h1.1l1.8,4.8l1.8-4.8h1L40.4,47 H39.4L39.4,47z M34.2,47v-5.9h1V47H34.2L34.2,47z M30.5,42v5h-1v-5h-1.9v-0.9h4.7V42H30.5L30.5,42z M24,42.2l-1.1,2.6h2.2 L24,42.2L24,42.2z M22.5,45.7L21.9,47h-1l2.6-5.9h1l2.6,5.9H26l-0.6-1.3H22.5L22.5,45.7z M16.1,42v1.6H19v0.9h-2.9v1.6h3.3V47 h-4.3v-5.9h4.2V42H16.1L16.1,42z M10.4,44.3c0.9,0,1.4-0.4,1.4-1.2c0-0.8-0.5-1.1-1.4-1.1H9v2.3H10.4L10.4,44.3z M10.7,45.2 c-0.1,0-0.2,0-0.3,0H9V47H8v-5.9h2.4c1.5,0,2.4,0.7,2.4,2c0,0.9-0.4,1.6-1.2,1.9l1.3,2h-1.1L10.7,45.2L10.7,45.2z M6,42l-0.6,0.7 C5,42.3,4.4,42,3.8,42c-1.2,0-2.1,0.9-2.1,2.1c0,1.2,0.9,2.1,2.1,2.1c0.6,0,1.2-0.3,1.6-0.7L6,46.1c-0.6,0.6-1.4,1-2.3,1 c-1.7,0-3.1-1.3-3.1-3c0-1.7,1.4-3,3.1-3C4.6,41.1,5.4,41.5,6,42L6,42z"></path> </defs> <clipPath id="SVGID_00000124849965911310393810000015533263528375661748_"> <use xlink:href="#SVGID_00000147907414148190744060000017374749695532401590_" style="overflow:visible;"></use> </clipPath> <g style="clip-path:url(#SVGID_00000124849965911310393810000015533263528375661748_);"> <defs> <rect id="SVGID_00000022526741213518655390000017099929802663881374_" x="0.7" y="41.1" width="151.9" height="6"></rect> </defs> <clipPath id="SVGID_00000139261731808042722980000015810244379405868959_"> <use xlink:href="#SVGID_00000022526741213518655390000017099929802663881374_" style="overflow:visible;"></use> </clipPath> <g style="clip-path:url(#SVGID_00000139261731808042722980000015810244379405868959_);"> <image style="overflow:visible;" width="1100" height="46" transform="matrix(0.1386 0 0 -0.1386 0.5101 47.2945)"> </image> </g> </g> </g> </g> </svg> 