<?xml version="1.0" encoding="UTF-8"?> <svg xmlns="http://www.w3.org/2000/svg" xmlns:xlink="http://www.w3.org/1999/xlink" version="1.1" id="Layer_1" x="0px" y="0px" viewBox="0 0 153 55" style="enable-background:new 0 0 153 55;" xml:space="preserve"> <style type="text/css"> .st0{clip-path:url(#SVGID_00000004530925912939619040000007562455240079647140_);fill:#FFFFFF;} .st1{fill:#FFFFFF;} </style> <g> <g> <defs> <rect id="SVGID_1_" x="0.5" y="6.4" width="152" height="40.6"></rect> </defs> <clipPath id="SVGID_00000121960378303063325520000002169530883645779083_"> <use xlink:href="#SVGID_1_" style="overflow:visible;"></use> </clipPath> <path style="clip-path:url(#SVGID_00000121960378303063325520000002169530883645779083_);fill:#FFFFFF;" d="M146.4,30.9V6.9h5.4 v23.9H146.4L146.4,30.9z M134.3,18.9c0-4.2-3.1-7.4-7.2-7.4c-4.1,0-7.2,3.3-7.2,7.4c0,4.2,3.1,7.4,7.2,7.4 C131.2,26.3,134.3,23.1,134.3,18.9L134.3,18.9z M114.4,18.9c0-7.1,5.7-12.5,12.7-12.5c7.2,0,12.7,5.3,12.7,12.4 c0,7.1-5.5,12.5-12.7,12.5C120.1,31.3,114.4,26,114.4,18.9L114.4,18.9z M106,6.9h6.3l-9.5,12l9.8,12h-7l-8.1-10.2v10.2H92V6.9h5.4 v11.1L106,6.9L106,6.9z M71.9,21v5.2h5.1c2.1,0,3.3-1,3.3-2.5c0-1.6-1.2-2.7-3.3-2.7H71.9L71.9,21z M71.9,11.6v4.9h4.1 c1.9,0,2.8-1,2.8-2.5c0-1.4-0.9-2.4-2.8-2.4H71.9L71.9,11.6z M66.4,6.9h9.9c5.3,0,7.7,3,7.7,6.5c0,2.1-1,3.8-3,4.9 c3,0.9,4.6,2.9,4.6,5.7c0,3.9-2.8,6.8-8.4,6.8H66.4V6.9L66.4,6.9z M54.4,18.9c0-4.2-3.1-7.4-7.2-7.4S40,14.7,40,18.9 c0,4.2,3.1,7.4,7.2,7.4C51.3,26.3,54.4,23.1,54.4,18.9L54.4,18.9z M34.5,18.9c0-7.1,5.7-12.5,12.7-12.5c7.2,0,12.7,5.3,12.7,12.4 c0,7.1-5.5,12.5-12.7,12.5C40.2,31.3,34.5,26,34.5,18.9L34.5,18.9z M6.1,16.6v14.3H0.9V6.9h6.5l7,15.8l7-15.8h6.5v23.9h-5.3V16.5 l-6.5,14.4h-3.6L6.1,16.6L6.1,16.6z"></path> </g> <path class="st1" d="M97.6,43.4c-0.5,0-0.9,0.4-0.9,0.9c0,0.5,0.4,0.9,0.9,0.9c0.5,0,0.9-0.4,0.9-0.9 C98.5,43.8,98.1,43.4,97.6,43.4L97.6,43.4z M54.5,43.4c-0.5,0-0.9,0.4-0.9,0.9c0,0.5,0.4,0.9,0.9,0.9c0.5,0,0.9-0.4,0.9-0.9 C55.3,43.8,55,43.4,54.5,43.4L54.5,43.4z M149.3,42v1.6h2.9v0.9h-2.9v1.6h3.3V47h-4.3v-5.9h4.2V42H149.3L149.3,42z M144.8,47l0-4.4 l-1.9,3.8h-0.6l-1.9-3.8V47h-0.9v-5.9h1.2l1.9,3.9l1.9-3.9h1.2V47H144.8L144.8,47z M132.1,44.1c0,1.2,1,2.1,2.1,2.1 c1.2,0,2.1-0.9,2.1-2.1c0-1.2-0.9-2.1-2.1-2.1C133.1,42,132.1,42.9,132.1,44.1L132.1,44.1z M137.4,44.1c0,1.7-1.4,3-3.1,3 c-1.8,0-3.1-1.3-3.1-3c0-1.7,1.4-3,3.1-3C136,41.1,137.4,42.4,137.4,44.1L137.4,44.1z M129.7,42l-0.6,0.7c-0.4-0.5-1-0.7-1.6-0.7 c-1.2,0-2.1,0.9-2.1,2.1c0,1.2,0.9,2.1,2.1,2.1c0.6,0,1.2-0.3,1.6-0.7l0.6,0.7c-0.6,0.6-1.4,1-2.3,1c-1.7,0-3.1-1.3-3.1-3 c0-1.7,1.4-3,3.1-3C128.3,41.1,129.1,41.4,129.7,42L129.7,42z M121.5,42v5h-1v-5h-1.9v-0.9h4.7V42H121.5L121.5,42z M116.9,44.6 c0,1.5-1,2.5-2.6,2.5c-1.6,0-2.6-0.9-2.6-2.5v-3.4h1v3.4c0,1,0.6,1.6,1.6,1.6c1,0,1.6-0.6,1.6-1.6v-3.4h1V44.6L116.9,44.6z M104.5,44.1c0,1.2,1,2.1,2.1,2.1c1.1,0,2.1-0.9,2.1-2.1c0-1.2-0.9-2.1-2.1-2.1C105.5,42,104.5,42.9,104.5,44.1L104.5,44.1z M109.8,44.1c0,1.7-1.4,3-3.1,3c-1.8,0-3.1-1.3-3.1-3c0-1.7,1.4-3,3.1-3C108.4,41.1,109.8,42.4,109.8,44.1L109.8,44.1z M89.5,42.2 l-1.1,2.6h2.2L89.5,42.2L89.5,42.2z M88,45.7L87.4,47h-1l2.6-5.9h1l2.6,5.9h-1.1L91,45.7H88L88,45.7z M83.6,47v-5.9h1V47H83.6 L83.6,47z M77,46.1h1.4c1.1,0,2-0.8,2-2c0-1.2-0.9-2.1-2.1-2.1H77V46.1L77,46.1z M78.5,41.1c1.8,0,3,1.2,3,2.9 c0,1.7-1.3,2.9-3.1,2.9H76v-5.9H78.5L78.5,41.1z M70.5,42v1.6h2.9v0.9h-2.9v1.6h3.3V47h-4.3v-5.9h4.2V42H70.5L70.5,42z M66,47 l0-4.4l-1.9,3.8h-0.6l-1.9-3.8V47h-0.9v-5.9h1.2l1.9,3.9l1.9-3.9h1.2V47H66L66,47z M45.5,42v1.6h2.9v0.9h-2.9v1.6h3.3V47h-4.3v-5.9 h4.2V42H45.5L45.5,42z M39.3,47L37,41.1H38l1.8,4.8l1.8-4.8h1L40.3,47H39.3L39.3,47z M34.1,47v-5.9h1V47H34.1L34.1,47z M30.4,42v5 h-1v-5h-1.9v-0.9h4.7V42H30.4L30.4,42z M23.9,42.2l-1.1,2.6H25L23.9,42.2L23.9,42.2z M22.4,45.7L21.8,47h-1l2.6-5.9h1L27,47h-1.1 l-0.6-1.3H22.4L22.4,45.7z M16,42v1.6h2.9v0.9H16v1.6h3.3V47H15v-5.9h4.2V42H16L16,42z M10.3,44.3c0.9,0,1.4-0.4,1.4-1.2 c0-0.8-0.5-1.1-1.4-1.1H8.9v2.3H10.3L10.3,44.3z M10.6,45.2c-0.1,0-0.2,0-0.3,0H8.9V47h-1v-5.9h2.4c1.5,0,2.4,0.7,2.4,2 c0,0.9-0.4,1.6-1.2,1.9l1.3,2h-1.1L10.6,45.2L10.6,45.2z M5.9,42l-0.6,0.7c-0.4-0.5-1-0.7-1.6-0.7c-1.2,0-2.1,0.9-2.1,2.1 c0,1.2,0.9,2.1,2.1,2.1c0.6,0,1.2-0.3,1.6-0.7l0.6,0.7c-0.6,0.6-1.4,1-2.3,1c-1.7,0-3.1-1.3-3.1-3c0-1.7,1.4-3,3.1-3 C4.5,41.1,5.3,41.4,5.9,42L5.9,42z"></path> </g> </svg> 